<?xml version="1.0" encoding="utf-8"?>
<!-- Generator: Adobe Illustrator 24.0.1, SVG Export Plug-In . SVG Version: 6.00 Build 0)  -->
<svg version="1.1" id="图层_1" xmlns="http://www.w3.org/2000/svg" xmlns:xlink="http://www.w3.org/1999/xlink" x="0px" y="0px"
	 viewBox="0 0 820.9 200" style="enable-background:new 0 0 820.9 200;" xml:space="preserve">
<style type="text/css">
	.st0{fill:#FFFFFF;}
	.st1{fill:#3E8445;}
</style>
<g>
	<g>
		<g>
			<path class="st0" d="M346.7,184.1v-70.6h-56.2v62.5c0,4.4-3.6,8-8,8H258V23.9c0-4.4,3.6-8,8-8h24.4v69h56.2v-61c0-4.4,3.6-8,8-8
				h24.4v160.2c0,4.4-3.6,8-8,8H346.7z"/>
		</g>
		<g>
			<path class="st0" d="M417.9,184.1V23.9c0-4.4,3.6-8,8-8h101.4v20.9c0,4.4-3.6,8-8,8h-69v40h65.6v20.9c0,4.4-3.6,8-8,8h-57.6v41.4
				h77v20.9c0,4.4-3.6,8-8,8L417.9,184.1L417.9,184.1z"/>
		</g>
		<g>
			<path class="st0" d="M614.6,184.5c-18.2,0-33.1-6.5-44.8-18.2c-16.8-16.8-16.3-37.6-16.3-66.3s-0.5-49.5,16.3-66.3
				c11.7-11.7,26.6-18.2,44.8-18.2c31,0,55.3,17.7,61.1,52.5h-27c-3.3,0-6.3-2-7.5-5.1c-4.1-10.7-12.3-18.4-26.4-18.4
				c-8.9,0-16.1,3.3-20.8,8.6c-6.3,7-8.2,14.9-8.2,46.9s1.9,39.9,8.2,46.9c4.7,5.4,11.9,8.6,20.8,8.6c16.3,0,24.7-10.3,28-23.6h22.8
				c5.3,0,9.3,5.1,7.7,10.2C664.8,170.2,642.2,184.5,614.6,184.5z"/>
		</g>
		<g>
			<path class="st0" d="M804.3,166.3c-11.7,11.7-25.9,18.2-44.8,18.2c-18.9,0-33.4-6.5-45-18.2c-16.8-16.8-16.3-37.6-16.3-66.3
				s-0.5-49.5,16.3-66.3c11.7-11.7,26.1-18.2,45-18.2c18.9,0,33.1,6.5,44.8,18.2c16.8,16.8,16.6,37.6,16.6,66.3
				S821.1,149.5,804.3,166.3z M780.3,53.3c-4.7-5.4-11.9-8.9-20.8-8.9s-16.3,3.5-21,8.9c-6.3,7-7.9,14.7-7.9,46.7s1.6,39.7,7.9,46.7
				c4.7,5.4,12.1,8.9,21,8.9s16.1-3.5,20.8-8.9c6.3-7,8.2-14.7,8.2-46.7S786.6,60.3,780.3,53.3z"/>
		</g>
	</g>
	<g>
		<g>
			<path class="st1" d="M50.2,9.8v26.3C29,44,11.3,59.1,0.1,78.4V0h40.4C45.8,0,50.2,4.4,50.2,9.8z"/>
			<path class="st1" d="M119.9,43v25.2c0,13.9-11.3,25.2-25.2,25.2h-8.2c-20,0-36.2,16.2-36.3,36.2V200H9.8c-5.4,0-9.8-4.4-9.8-9.8
				v-59.6c0-1-0.1-2.1-0.1-3.1C0,80.8,37.8,43,84.5,43c1.1,0,2.1,0,3.1,0.1L119.9,43L119.9,43z"/>
		</g>
		<g>
			<path class="st1" d="M132.9,190.2v-26.3c21.2-7.9,38.9-23.1,50.1-42.4V200h-40.4C137.3,200,132.9,195.6,132.9,190.2z"/>
			<path class="st1" d="M63.2,156.9v-25.2c0-13.9,11.3-25.2,25.1-25.2h8.2c20,0,36.2-16.2,36.3-36.2V0h40.4c5.4,0,9.8,4.4,9.8,9.8
				v59.6c0.1,1,0.1,2.1,0.1,3.1c0,46.7-37.8,84.5-84.5,84.5c-1.1,0-2.1,0-3.1-0.1L63.2,156.9L63.2,156.9z"/>
		</g>
	</g>
</g>
</svg>
