<?xml version="1.0" encoding="utf-8"?>
<!-- Generator: Adobe Illustrator 24.0.1, SVG Export Plug-In . SVG Version: 6.00 Build 0)  -->
<svg version="1.1" id="Layer_1" xmlns="http://www.w3.org/2000/svg" xmlns:xlink="http://www.w3.org/1999/xlink" x="0px" y="0px"
	 viewBox="0 0 1876.6 1000.1" style="enable-background:new 0 0 1876.6 1000.1;" xml:space="preserve">
<style type="text/css">
	.st0{fill:#CE206F;}
	.st1{fill:#FFFFFF;}
	.st2{fill:#1E1E1E;}
	.st3{fill:#E6007A;}
</style>
<g>
	<g>
		<g>
			<path class="st0" d="M500,0c276.1,0,500,223.9,500,500s-223.9,500-500,500S0,776.1,0,500S223.9,0,500,0L500,0z"/>
		</g>
	</g>
</g>
<path class="st1" d="M821.8,280.8c-14-12.4-29.6-21.8-48.2-24.9c-23.3-3.1-46.7,12.4-62.2,23.3s-46.7,38.9-59.1,49.8
	c-12.4,10.9-43.6,17.1-94.9,48.2S306.8,536,306.8,536h51.3L126.3,655.8h23.3L117,680.7c18.7,4.7,37.3,1.6,54.5-7.8v7.8
	c0,0,275.4-108.9,328.3-80.9l-32.7,9.3c3.1,0,54.5,3.1,54.5,3.1c3.1,21.8,15.6,42,34.2,52.9c31.1,20.2,32.7,32.7,32.7,32.7
	s-15.6,6.2-15.6,15.6c29.6-9.3,60.7-9.3,88.7,0c0,0-1.6-9.3-23.3-15.6c-21.8-9.3-40.5-23.3-54.5-43.6c-12.4-17.1-17.1-38.9-9.3-59.1
	c7.8-20.2,34.2-31.1,88.7-59.1c63.8-32.7,79.3-57.6,87.1-77.8c7.8-20.2,23.3-57.6,29.6-76.2c6.2-17.1,17.1-31.1,31.1-43.6
	c17.1-9.3,35.8-17.1,52.9-23.3C866.9,316.6,832.7,288.6,821.8,280.8z"/>
<g>
	<g>
		<g>
			<path class="st1" d="M1376.4,0c276.1,0,500,223.9,500,500s-223.9,500-500,500s-500-223.9-500-500S1100.3,0,1376.4,0L1376.4,0z"/>
		</g>
	</g>
</g>
<path class="st2" d="M1379.6,165.8c-133.1,0.5-240.9,108.3-241.4,241.4c0,26.7,4.3,53.1,12.7,78.4c6.3,17.2,25,26.5,42.5,21.2
	c16.9-6.5,25.9-25,20.5-42.3c-7.2-19.7-10.3-40.6-9.4-61.5c2.9-96.1,83.2-171.7,179.3-168.8c96.1,2.9,171.7,83.2,168.8,179.3
	c-2.7,90-73.6,163.1-163.5,168.6c0,0-33.9,2.1-50.7,4.1c-6.2,0.9-12.4,2.1-18.5,3.7c-0.9,0.9-2.3,0.9-3.2,0l0,0
	c-0.6-0.8-0.6-1.9,0-2.7l5.2-28.6l31.8-143.1c3.8-17.9-7.6-35.5-25.4-39.3c-17.9-3.8-35.5,7.6-39.3,25.4c0,0-75.7,350.4-75.7,353.6
	c-4.3,17,6,34.3,23,38.7c0.2,0.1,0.4,0.1,0.6,0.1h1.8c17,4.4,34.4-5.8,38.8-22.8c0.1-0.3,0.2-0.6,0.2-0.9c-0.1-0.5-0.1-1.1,0-1.6
	c0.9-4.1,10.5-50.7,10.5-50.7c7.2-35.2,35.6-62.2,71.1-67.6c7.3-1.1,38-3.2,38-3.2c132.6-13.2,229.4-131.4,216.1-264
	C1601.4,262.1,1501.2,169,1379.6,165.8z"/>
<path class="st3" d="M1394.3,722.5c-21.8-4.5-43.1,9.4-47.6,31.2c-0.1,0.2-0.1,0.4-0.1,0.6c-4.7,21.6,9,43,30.6,47.7
	c0,0,0.1,0,0.1,0h1.1c21.2,5.1,42.5-7.9,47.6-29.1c0.1-0.2,0.1-0.3,0.1-0.5v-2.2C1429.8,748.4,1415.9,727.4,1394.3,722.5z"/>
</svg>
