<svg xmlns="http://www.w3.org/2000/svg" viewBox="0 0 499.49 151.49"><defs><style>.cls-1{fill:#fff;}.cls-2{fill:#7f46f0;}.cls-2,.cls-3,.cls-4,.cls-5{fill-rule:evenodd;}.cls-3{fill:#d34fa0;}.cls-4{fill:#0aa5e8;}.cls-5{fill:#38e4de;}</style></defs><title>logo</title><g id="Слой_2" data-name="Слой 2"><g id="Слой_1-2" data-name="Слой 1"><g id="Layer_1"><g id="_2302125060912" data-name=" 2302125060912"><path class="cls-1" d="M420.48,47.45h-19v5.2c-3.73-4-9.38-6.22-16.72-6.22-16.16,0-27.23,12.77-27.23,30.73,0,17.74,11.07,30.39,27.23,30.39a23.2,23.2,0,0,0,18.07-8.36v7.34h17.62V47.45Zm-19,39.43a17.55,17.55,0,0,1-11.3,4.29c-8.13,0-13.33-5.54-13.33-14,0-8.7,5.08-14.23,13.33-14.23a17.07,17.07,0,0,1,11.3,4.29Z"/><polygon class="cls-1" points="325.02 26.32 325.02 106.53 343.99 106.53 343.99 26.32 325.02 26.32"/><path class="cls-1" d="M302.5,87.44a31.86,31.86,0,0,1-16.95,5.65c-8.7,0-13.55-4.41-14.68-11.3h37.84A50.35,50.35,0,0,0,310,70.5c0-13.56-8.58-24.63-26.54-24.63-19,0-31.41,13.55-31.41,31.29,0,17.51,10.17,31,32.42,31,10.06,0,19-3,25.08-8Zm-9-17.62H271.2c.91-5.2,5.09-9.49,12.09-9.49s10.17,3.39,10.17,8.13Z"/><path class="cls-1" d="M197.87,106.53h19V78.42a13.59,13.59,0,0,1,13.57-13.57h11.17v-19h-11a32.85,32.85,0,0,0-32.77,32.77v27.89Z"/><path class="cls-1" d="M456.4,47.45V76.24c0,15.66,24.11,17,24.11-1.47V47.45h19v77.71h-19V105.72c-21.24,7.43-43.09-5.91-43.09-30V47.45Z"/></g></g><g id="Layer_1-2" data-name="Layer_1"><g id="_2302127387760" data-name=" 2302127387760"><path class="cls-2" d="M89.68,93.58v21.17a36.81,36.81,0,0,1-36.74,36.74H27.87V123.62H52.44a9.39,9.39,0,0,0,9.37-9.37V89.68H89.68Z"/><path class="cls-3" d="M57.91,61.81H36.74A36.81,36.81,0,0,0,0,98.55v25.07H27.87V99.05a9.39,9.39,0,0,1,9.37-9.37H61.81V61.81Z"/><path class="cls-4" d="M93.58,89.68h21.17a36.81,36.81,0,0,0,36.74-36.74V27.87H123.62V52.44a9.39,9.39,0,0,1-9.37,9.37H89.68V89.68Z"/><path class="cls-5" d="M61.81,57.91V36.74A36.81,36.81,0,0,1,98.55,0h25.07V27.87H99.05a9.39,9.39,0,0,0-9.37,9.37V61.81H61.81Z"/></g></g></g></g></svg>