<svg xmlns="http://www.w3.org/2000/svg" viewBox="0 0 151.49 151.49"><defs><style>.cls-1{fill:#7f46f0;}.cls-1,.cls-2,.cls-3,.cls-4{fill-rule:evenodd;}.cls-2{fill:#d34fa0;}.cls-3{fill:#0aa5e8;}.cls-4{fill:#38e4de;}</style></defs><title>logo_icon</title><g id="Слой_2" data-name="Слой 2"><g id="Слой_1-2" data-name="Слой 1"><g id="Layer_1"><g id="_2302127387760" data-name=" 2302127387760"><path class="cls-1" d="M89.68,93.58v21.17a36.81,36.81,0,0,1-36.74,36.74H27.87V123.62H52.44a9.39,9.39,0,0,0,9.37-9.37V89.68H89.68Z"/><path class="cls-2" d="M57.91,61.81H36.74A36.81,36.81,0,0,0,0,98.55v25.07H27.87V99.05a9.39,9.39,0,0,1,9.37-9.37H61.81V61.81Z"/><path class="cls-3" d="M93.58,89.68h21.17a36.81,36.81,0,0,0,36.74-36.74V27.87H123.62V52.44a9.39,9.39,0,0,1-9.37,9.37H89.68V89.68Z"/><path class="cls-4" d="M61.81,57.91V36.74A36.81,36.81,0,0,1,98.55,0h25.07V27.87H99.05a9.39,9.39,0,0,0-9.37,9.37V61.81H61.81Z"/></g></g></g></g></svg>