<?xml version="1.0" encoding="UTF-8"?>
<!DOCTYPE svg PUBLIC "-//W3C//DTD SVG 1.0//EN" "http://www.w3.org/TR/2001/REC-SVG-20010904/DTD/svg10.dtd">
<!-- Creator: CorelDRAW X7 -->
<svg xmlns="http://www.w3.org/2000/svg" xml:space="preserve" width="250px" height="82px" version="1.0" style="shape-rendering:geometricPrecision; text-rendering:geometricPrecision; image-rendering:optimizeQuality; fill-rule:evenodd; clip-rule:evenodd"
viewBox="0 0 527130 172737"
 xmlns:xlink="http://www.w3.org/1999/xlink">
 <defs>
  <style type="text/css">
   <![CDATA[
    .fil0 {fill:white;fill-rule:nonzero}
   ]]>
  </style>
 </defs>
 <g id="Layer_x0020_1">
  <metadata id="CorelCorpID_0Corel-Layer"/>
  <g id="_2302125060912">
   <path class="fil0" d="M389058 36919l-33168 0 0 9083c-6515,-6911 -16386,-10859 -29220,-10859 -28231,0 -47578,22311 -47578,53702 0,30994 19347,53107 47578,53107 13821,0 24680,-6317 31589,-14609l0 12832 11800 0 18999 0 0 -12832 0 -22266 0 -241 0 -12888 0 -55029zm-33168 68904c-5132,4540 -12437,7501 -19743,7501 -14215,0 -23295,-9673 -23295,-24479 0,-15204 8884,-24876 23295,-24876 7699,0 15598,3355 19743,7501l0 34353z"/>
   <polygon class="fil0" points="222209,0 222209,140175 255377,140175 255377,0 "/>
   <path class="fil0" d="M182850 106809c-6515,4738 -18557,9873 -29614,9873 -15201,0 -23691,-7700 -25664,-19743l66137 0c1185,-3752 2174,-13229 2174,-19744 0,-23691 -15005,-43039 -46396,-43039 -33168,0 -54887,23692 -54887,54689 0,30600 17769,54093 56664,54093 17570,0 33167,-5330 43828,-14016l-12242 -22113zm-15793 -30798l-38893 0c1579,-9081 8885,-16585 21124,-16585 12240,0 17769,5923 17769,14215l0 2370z"/>
   <path class="fil0" d="M0 140175l33168 0 0 -45790 0 -3348c0,-13061 10652,-23713 23712,-23713l5534 0 13991 0 0 -14585 0 -9293 0 -9290 -19128 0c-31531,0 -57277,25746 -57277,57277l0 3941 0 44801z"/>
   <path class="fil0" d="M451822 36919l0 44804 0 5517c0,27360 42140,29629 42140,-2571l0 -47750 5285 0 27883 0 0 71732 0 64086 -33168 0 0 -33975c-37120,12981 -75308,-10342 -75308,-52392l0 -5635 0 -43816 33168 0z"/>
  </g>
 </g>
</svg>
