<?xml version="1.0" encoding="utf-8"?>
<!-- Generator: Adobe Illustrator 24.0.1, SVG Export Plug-In . SVG Version: 6.00 Build 0)  -->
<svg version="1.1" id="Слой_1" xmlns="http://www.w3.org/2000/svg" xmlns:xlink="http://www.w3.org/1999/xlink" x="0px" y="0px"
	 viewBox="0 0 524.5 205" style="enable-background:new 0 0 524.5 205;" xml:space="preserve">
<style type="text/css">
	.st0{fill:#67CB9D;}
</style>
<path class="st0" d="M494.4,145.5c-0.5-1.5-0.1-2.2,1.4-2.8l4.7-1.7c1.5-0.5,2.1-0.4,3,1.1c0.9,1.8,2.9,2.6,5.6,2.6
	c3.4,0,5.4-0.7,5.4-2.9c0-2-2.6-2.5-5.9-3c-5.9-0.9-14-1.9-14-11.6c0-6.6,5.3-11.2,14.9-11.2c7.4,0,11.6,2.2,14,7
	c0.7,1.4,0.3,2.2-1.2,2.8l-5,2.1c-1.4,0.6-2,0.4-2.7-1.1c-1-1.9-2.8-2.6-5.1-2.6c-3.4,0-4.8,0.8-4.8,2.6c0,2.1,3,2.6,6.5,3.1
	c5.8,0.8,13.3,2.2,13.3,11.6c0,7.4-6.7,11.4-15.5,11.4C501.5,153.2,496.3,150.6,494.4,145.5L494.4,145.5z M382.5,150.4v-31.3
	c0-1.6,0.5-2.1,2.1-2.1h14.6c6.9,0,11,3.3,11,9.4c0,3.3-1,5.6-3.6,7.3v0.2c3.2,1.4,5,4.2,5,8.6c0,6.4-5.2,9.9-12.3,9.9h-14.9
	C383,152.5,382.5,151.9,382.5,150.4L382.5,150.4z M397.2,130.5c2,0,3.1-0.8,3.1-2.7s-1.1-2.8-3.1-2.8h-4.9v5.5H397.2z M398.1,144.5
	c2.1,0,3.2-0.9,3.2-3s-1.1-2.9-3.2-2.9h-5.8v5.9H398.1z M265.6,150.5l11.5-31.7c0.5-1.4,1.2-1.8,2.6-1.8h5.7
	c1.2-0.2,2.3,0.5,2.6,1.7l11.5,31.8c0.5,1.4,0,2-1.5,2h-5.4c-2.5,0-3.4-0.6-3.8-2.1l-1.1-3.6h-10.9l-1.1,3.6
	c-0.5,1.6-1.1,2.1-3.6,2.1h-5.2C265.4,152.5,265.1,151.8,265.6,150.5z M285.6,139l-1.9-5.9c-0.6-2.3-1-4.7-1.1-7.1h-0.5
	c0,2.4-0.3,4.7-1,7l-1.9,5.9L285.6,139z M163.3,150.4v-31.3c0-1.6,0.5-2.1,2.1-2.1h5.6c1.6,0,2.1,0.6,2.1,2.1v24.6h12
	c1.6,0,2.1,0.5,2.1,2.1v4.6c0,1.6-0.6,2.1-2.1,2.1h-19.8C163.7,152.5,163.2,151.9,163.3,150.4L163.3,150.4z M463.7,98.3V35.7
	c0-3.1,1-4.2,4.2-4.2h11.8c2.2,0,3.3,0.6,4.2,2l16.4,25.7c4.4,6.8,5.3,10.7,8.4,18.2h0.8c-3.2-10.2-4.5-15.1-4.5-25.2V35.7
	c0-3.1,1-4.2,4.2-4.2h10.2c3.1,0,4.2,1.1,4.2,4.2v62.6c0,3.1-1.1,4.2-4.2,4.2h-11.3c-2.1,0-3.2-0.6-4.1-2l-15.4-23.8
	c-4.4-6.9-6.1-11.6-8.8-20.5H479c2.1,9.4,3.3,14.6,3.3,25.8v16.3c0,3.1-1.1,4.2-4.3,4.2h-10.1C464.7,102.5,463.7,101.4,463.7,98.3
	L463.7,98.3z M393.4,76.1V57.9c0-17.2,10.9-27.9,30.7-27.9s30.7,10.7,30.7,27.9v18.2c0,17.2-11,27.9-30.7,27.9
	S393.4,93.3,393.4,76.1z M435,76.9V57.1c0-6.3-4-9.6-10.9-9.6s-11,3.3-11,9.6v19.8c0,6.3,4,9.6,11,9.6S435,83.2,435,76.9L435,76.9z
	 M328.6,98.3V35.7c0-3.1,1-4.2,4.2-4.2h28.5c15.1,0,24.9,8.6,24.9,24.1c0,9.7-4,16.8-10.8,20.6c1,1.3,1.9,2.8,2.7,4.3l9,17.1
	c1.4,2.7,0.7,4.9-2.6,4.9h-10.8c-5.3,0-7.5-1.3-9.2-4.8L358.1,84c-1.7-3.4-3.4-5.1-7.5-5.1h-2.3v19.4c0,3.1-1,4.2-4.2,4.2h-11.3
	C329.6,102.5,328.6,101.4,328.6,98.3L328.6,98.3z M359.1,62.2c4.2,0,6.6-2.6,6.6-6.7s-2.3-6.6-6.6-6.6h-10.8v13.3H359.1z
	 M298.3,98.5v-63c0-3,1-4,4-4H314c3,0,4,1,4,4v63c0,3-1,4-4,4h-11.7C299.3,102.5,298.3,101.5,298.3,98.5L298.3,98.5z M224.5,98.4
	l23-63.4c1-2.9,2.4-3.5,5.2-3.5h11.4c2.8,0,4.2,0.7,5.2,3.3l23.1,63.6c1,2.7,0.1,4.1-2.9,4.1h-10.8c-5.1,0-6.7-1.1-7.5-4.2l-2.2-7.2
	h-21.8l-2.3,7.2c-0.9,3.1-2.3,4.2-7.2,4.2h-10.5C224.1,102.5,223.5,101.1,224.5,98.4L224.5,98.4z M264.4,75.4l-3.7-11.7
	c-1.3-4.6-2-9.3-2.2-14.1h-1c0,4.7-0.7,9.4-1.9,14l-3.7,11.8H264.4z M163.2,98.3V35.7c0-3.1,1-4.2,4.2-4.2h11.3
	c3.2,0,4.2,1.1,4.2,4.2v22.2l1.4,0.1h0.8l14.4-22.8c1.9-3.1,2.9-3.7,8-3.7H219c3,0,4,1.8,2.4,4.4l-18.2,28.9
	c2.6,2.1,4.6,4.8,6.1,7.8l13.2,25c1.4,2.7,0.7,4.9-2.6,4.9h-10.8c-5.3,0-7.1-0.7-8.8-4.2l-8.7-17.9c-1.6-3.3-3.1-5.1-6.9-5.1h-1.8
	v23c0,3.1-1,4.2-4.2,4.2h-11.3C164.2,102.5,163.2,101.4,163.2,98.3L163.2,98.3z M78.7,205l-11.5-8.4l-54-39.7
	c-0.9-0.6-1.4-1.6-1.5-2.6c-0.6-6.3-1.2-12.7-1.9-19s-1.2-12.7-1.8-19s-1.3-12.7-1.9-19S5,84.6,4.3,78.2S3,65.6,2.4,59.2
	c-0.5-5.5-1.1-11-1.6-16.5C0.6,39.8,0.2,37,0,34.1c0-0.5,0.2-1.1,0.6-1.4C17.7,21.6,35.7,12,55.2,5.5C62.6,2.8,70.2,1,78.1,0.1
	c2-0.1,4,0.2,5.9,0.7c14.5,2.7,28.2,8,41.5,14.2c10.8,5.2,21.3,11.1,31.3,17.6c0.6,0.3,1,1,0.8,1.7c-0.7,6.5-1.3,13-2,19.5
	c-0.7,7.1-1.5,14.2-2.2,21.4c-0.6,6.2-1.2,12.5-1.8,18.8s-1.3,12.6-1.9,18.9c-0.5,5.4-1,10.8-1.6,16.3c-0.6,6.3-1.3,12.6-1.9,18.9
	c-0.2,2.1-0.4,4.3-0.6,6.5c0,1-0.5,1.8-1.3,2.4c-21.6,15.8-43.1,31.6-64.6,47.5C79.5,204.5,79.1,204.7,78.7,205L78.7,205z
	 M78.7,191.6L98,177.4c12.3-9,24.7-18.1,37-27.1c0.4-0.3,0.7-0.8,0.9-1.3c0.8-8.1,1.6-16.1,2.4-24.2c0.9-9.3,1.8-18.7,2.7-28
	s1.8-18.7,2.8-28c0.9-9.4,1.9-18.9,2.8-28.3c0.1-0.5-0.1-1.1-0.6-1.3c-8.8-5.6-17.9-10.6-27.3-15c-11.3-5.2-22.9-9.6-35.2-12
	c-1.8-0.4-3.8-0.9-5.5-0.6c-5.7,1-11.3,2.4-16.8,4c-16.9,5.2-32.4,13.2-47.4,22.2c-2.2,1.3-2.9,2.5-2.6,5.3l0.1,1.5
	c0.9,8.5,1.7,17,2.5,25.5c0.8,7.5,1.5,15.1,2.2,22.6l2.8,27.6c0.9,9.4,1.9,18.8,2.8,28.2c0,0.7,0.4,1.4,1,1.7
	c13.8,10.1,27.6,20.3,41.4,30.5C68.9,184.4,73.8,187.9,78.7,191.6L78.7,191.6z"/>
<path class="st0" d="M53.5,111.1c0.8,2.9,1.5,5.6,2.3,8.3c0.2,0.4,0.6,0.7,1,0.9c3.7,1.8,7.5,3.6,11.3,5.4c0.7,0.3,1.1,0.9,1.2,1.6
	l6,46.9c0,0.4,0.1,0.8,0.1,1.5l-5-4c-6.2-5-12.5-10-18.7-15c-0.6-0.4-0.9-1.2-0.8-1.9c0.5-5.9,1.2-11.9,1.5-17.8
	c0.1-2.4-0.2-4.9-0.8-7.3c-0.6-2.6-2.3-4.8-4.7-6c-0.3-0.2-0.6-0.6-0.7-1c-0.5-9.7-0.1-19.3,3.4-28.6c3.6-9.5,9.7-16.6,19.6-20
	c1-0.3,2.1-0.6,3.2-0.9l-4.2-9.7h2.8L66,23.4c3.8,1.3,7.5,2.6,11.2,3.9c1.1,0.4,2.3,0.4,3.3,0c3.3-1.2,6.6-2.3,9.9-3.5
	c0.4-0.1,0.8-0.2,1.3-0.4c-1.6,13.4-3.2,26.6-4.9,40h2.8l-4.3,9.7c4.6,0.9,9,3,12.6,6c5.5,4.5,8.9,10.4,11.1,17
	c2.5,7.9,3,16.1,2.7,24.3c0.1,1.7-0.7,3.2-2.1,4.2c-3.2,2.4-4.1,6-4.2,9.9c0,2.1,0.2,4.1,0.4,6.2c0.4,4.9,0.7,9.7,1.1,14.6
	c0,0.4-0.1,0.7-0.4,0.9c-7.9,6.4-15.8,12.8-23.8,19.1c-0.1,0-0.2,0-0.3,0.1v-0.9c2-15.6,4-31.2,5.9-46.7c0-1,0.7-1.9,1.6-2.2
	c3.7-1.7,7.3-3.4,10.9-5.2c0.5-0.3,1-0.8,1.2-1.4c0.8-2.5,1.4-5,2.2-7.8l-20.8,2c0.2,2.2,0.4,4.2,0.6,6.3c0.3,2.9,0.6,5.8,0.9,8.7
	c0.1,0.3,0,0.7-0.1,0.9c-1.9,2.9-3.8,5.8-5.8,8.8c-1.2-1.8-2.2-3.4-3.3-5c-2.8-4.3-2.7-4.3-2.1-9.4c0.4-3.4,0.6-6.8,1-10.3
	L53.5,111.1L53.5,111.1z"/>
</svg>
